Coordinates
version=1
nRows=13
nColumns=36
inDegrees=yes

Units are S.I. units (second, meters, Newtons, ...)
If the header above contains a line with 'inDegrees', this indicates whether rotational values are in degrees (yes) or radians (no).

endheader
time	pelvis_tilt	pelvis_list	pelvis_rotation	pelvis_tx	pelvis_ty	pelvis_tz	hip_flexion_r	hip_adduction_r	hip_rotation_r	knee_angle_r	knee_angle_r_beta	ankle_angle_r	subtalar_angle_r	mtp_angle_r	hip_flexion_l	hip_adduction_l	hip_rotation_l	knee_angle_l	knee_angle_l_beta	ankle_angle_l	subtalar_angle_l	mtp_angle_l	lumbar_extension	lumbar_bending	lumbar_rotation	arm_flex_r	arm_add_r	arm_rot_r	elbow_flex_r	pro_sup_r	arm_flex_l	arm_add_l	arm_rot_l	elbow_flex_l	pro_sup_l
      0.97000000	     -7.16344809	      4.44526574	      3.57849879	     -0.78430773	      1.41476364	     -0.55875403	     14.77456249	     -1.30437633	     -0.00658762	     53.72456897	      0.93767062	      1.50693601	    -19.38527615	     -5.43553155	     29.40120815	     -0.69137454	     -6.89982042	     57.39175594	      1.00167510	      0.87042200	    -12.25325865	     -5.43553155	     -5.21112834	      0.71266941	     -9.93858756	     78.25104868	    -20.68907858	     29.03636539	     95.74058029	    112.05516803	     68.10150826	    -57.76015013	     17.43537017	    111.28009093	     90.30891395
      0.98000000	     -6.81429242	      4.32986947	      3.78631004	     -0.77334035	      1.42047995	     -0.55927994	     15.62117432	     -1.57838758	     -0.82569480	     54.74873400	      0.95554567	      1.87886062	    -20.21607184	     -5.55980992	     29.22084788	     -0.77804743	     -7.09615903	     55.93926966	      0.97632444	     -0.26665438	    -12.58401105	     -5.55980992	     -5.54772276	      0.93262584	    -10.29073042	     76.75251574	    -22.45897583	     29.62624553	     97.29929890	    112.22557840	     63.76900158	    -58.94796306	     14.38652879	    112.23136143	     90.63199924
      0.99000000	     -6.30724840	      4.20574202	      3.95760529	     -0.76244145	      1.42553037	     -0.55952563	     16.12028184	     -1.78733400	     -1.58323552	     55.01442384	      0.96018283	      2.27344994	    -20.81623957	     -5.60451185	     28.82374741	     -0.91110572	     -7.31646993	     54.38327712	      0.94916724	     -1.12104613	    -12.47459165	     -5.60451185	     -6.13876598	      1.01113575	    -10.07198802	     74.94735227	    -25.00398910	     29.61615515	     99.27338585	    112.31384299	     60.48542871	    -59.22069902	     12.39077968	    112.56614554	     90.74281074
      1.00000000	     -5.77168234	      4.07118832	      4.24241155	     -0.75180695	      1.42970634	     -0.55989718	     16.44484852	     -2.00560394	     -2.39516547	     54.63034195	      0.95347934	      2.68650874	    -21.30937017	     -5.62885886	     28.43272575	     -0.95809775	     -7.34516377	     52.78065670	      0.92119624	     -2.13501492	    -12.13120621	     -5.62885886	     -6.90074673	      1.08686241	     -9.91806766	     73.24371339	    -27.70244186	     29.50683237	    101.16067402	    112.38902334	     57.58065206	    -59.59440317	     10.88298920	    112.87985905	     90.79424986
      1.01000000	     -5.25772763	      3.85764491	      4.40568154	     -0.74102260	      1.43308081	     -0.56007254	     16.65748070	     -2.05218811	     -3.00148272	     53.53477871	      0.93435815	      2.61787310	    -21.37798465	     -5.65844689	     28.00226264	     -1.13267040	     -7.48620587	     51.09298883	      0.89174088	     -3.17996612	    -12.08397515	     -5.65844689	     -7.60360363	      1.29372066	     -9.61243524	     71.52433911	    -30.25964123	     29.20902243	    102.73004412	    112.39339129	     54.22833192	    -59.64467495	      8.79852476	    112.99617298	     90.73112382
      1.02000000	     -4.89748307	      3.62469717	      4.54118685	     -0.73020151	      1.43538730	     -0.56047717	     16.91344189	     -2.05167660	     -3.46917299	     51.85267648	      0.90499993	      2.03572636	    -21.27672812	     -5.92505567	     27.71591387	     -1.27684622	     -7.60934605	     49.33073496	      0.86098375	     -4.49182566	    -12.34403448	     -5.92505567	     -8.25855312	      1.88629117	    -11.13345560	     71.30340504	    -30.37103586	     30.49579306	    102.34746624	    111.99254799	     45.70951034	    -61.91963351	      1.11582539	    114.57691772	     89.93552115
      1.03000000	     -4.40779247	      3.52495605	      4.60921601	     -0.71932029	      1.43696722	     -0.56063804	     16.92261361	     -2.18561943	     -3.93171943	     49.73695435	      0.86807361	      1.24803407	    -20.59975036	     -5.94743505	     27.20891228	     -1.37072811	     -7.84376550	     47.47289872	      0.82855839	     -5.35439023	    -11.54884354	     -5.94743505	     -9.00872051	      1.92153853	    -10.51050406	     69.78623654	    -33.31630074	     30.14444581	    103.70935746	    112.02407903	     43.35945226	    -61.66249039	      0.01297999	    114.05171994	     89.78233723
      1.04000000	     -4.10126226	      3.40635881	      4.62480373	     -0.70822785	      1.43748641	     -0.56081183	     17.03612960	     -2.28480327	     -4.32683262	     47.24024725	      0.82449785	     -0.15945203	    -19.91007397	     -6.17526787	     26.83568834	     -1.43210209	     -8.00782712	     45.51463291	      0.79438020	     -6.38940737	    -10.93449722	     -6.17526787	     -9.67477236	      2.21501666	    -11.54465063	     69.65566351	    -34.02439174	     31.19346128	    103.48329812	    111.48998837	     35.50891100	    -63.06205819	     -7.07915915	    115.07197276	     89.46197349
      1.05000000	     -3.88090905	      3.37865191	      4.57716990	     -0.69727800	      1.43683438	     -0.56083273	     17.23006656	     -2.43817854	     -4.56139504	     44.61514945	      0.77868125	     -1.45239747	    -18.54589498	     -6.19438923	     26.50620879	     -1.40853764	     -8.18156923	     43.48518124	      0.75895959	     -7.27287858	    -10.03996311	     -6.19438923	    -10.13481500	      2.11114200	    -10.90993703	     68.64544125	    -36.81432225	     31.16570286	    104.29758499	    111.40573498	     33.57001456	    -62.92375888	     -7.71356584	    114.67514140	     89.40240152
      1.06000000	     -3.73348512	      3.32369823	      4.38055434	     -0.68634148	      1.43496891	     -0.56085844	     17.49574882	     -2.44071698	     -4.51714297	     41.82055961	      0.72990646	     -3.46282276	    -17.43424328	     -6.42525037	     26.23167406	     -1.40130280	     -8.25500225	     41.44359978	      0.72332727	     -8.29584847	     -9.47380916	     -6.42525037	    -10.69375214	      2.29208625	    -11.96531879	     69.48745066	    -37.28924217	     32.91975274	    103.66436128	    111.07883050	     24.84646210	    -64.32314539	    -15.82096148	    115.83901534	     90.24893000
      1.07000000	     -3.65364924	      3.36036340	      4.19033611	     -0.67532085	      1.43181470	     -0.56082554	     17.79713990	     -2.51106665	     -4.38140098	     38.99976013	      0.68067422	     -5.35073782	    -15.89533142	     -6.65130131	     26.00762631	     -1.33754963	     -8.40177151	     39.40813637	      0.68780173	     -9.03358416	     -8.43131164	     -6.65130131	    -11.07873040	      2.18295878	    -12.20615235	     69.92049297	    -38.92457774	     34.15855038	    103.65193084	    110.99192108	     19.27502594	    -65.11501223	    -20.61703818	    116.28111713	     90.71794470
      1.08000000	     -3.66263492	      3.40909048	      4.02341771	     -0.66418747	      1.42736857	     -0.56074228	     18.16921765	     -2.66246230	     -4.45042336	     36.17276729	      0.63133389	     -7.31166940	    -13.95487731	     -6.86252989	     25.85158664	     -1.21626333	     -8.37030502	     37.32726474	      0.65148367	     -9.91617327	     -6.99496975	     -6.86252989	    -11.33525570	      2.01680232	    -12.42637717	     70.62221523	    -40.70488974	     35.67909930	    103.78281580	    110.50492385	     13.67078699	    -65.93601124	    -25.59592135	    116.77407105	     90.73683687
      1.09000000	     -3.74057234	      3.46583441	      3.88985238	     -0.65289473	      1.42175639	     -0.56068004	     18.52818505	     -2.89703098	     -4.77328833	     33.26194693	      0.58053049	     -9.33221371	    -11.46168098	     -6.87170244	     25.70932935	     -1.04211929	     -8.13986610	     35.12123386	      0.61298117	    -11.00804518	     -5.45740965	     -6.87170244	    -11.38142652	      1.73757442	    -11.64499479	     70.82328578	    -43.83511628	     36.57730026	    104.82426505	    110.50717720	     12.51439742	    -66.39054732	    -26.15674929	    116.61616659	     90.68631092
